<svg aria-roledescription="flowchart-v2" role="graphics-document document" viewBox="0 0 1936 1642.9998779296875" style="max-width: 1936px;" class="flowchart" xmlns:xlink="http://www.w3.org/1999/xlink" xmlns="http://www.w3.org/2000/svg" width="100%" id="mermaid-diagram-mermaid-c5sn427"><style>#mermaid-diagram-mermaid-c5sn427{font-family:"trebuchet ms",verdana,arial,sans-serif;font-size:16px;fill:#000000;}@keyframes edge-animation-frame{from{stroke-dashoffset:0;}}@keyframes dash{to{stroke-dashoffset:0;}}#mermaid-diagram-mermaid-c5sn427 .edge-animation-slow{stroke-dasharray:9,5!important;stroke-dashoffset:900;animation:dash 50s linear infinite;stroke-linecap:round;}#mermaid-diagram-mermaid-c5sn427 .edge-animation-fast{stroke-dasharray:9,5!important;stroke-dashoffset:900;animation:dash 20s linear infinite;stroke-linecap:round;}#mermaid-diagram-mermaid-c5sn427 .error-icon{fill:#552222;}#mermaid-diagram-mermaid-c5sn427 .error-text{fill:#552222;stroke:#552222;}#mermaid-diagram-mermaid-c5sn427 .edge-thickness-normal{stroke-width:1px;}#mermaid-diagram-mermaid-c5sn427 .edge-thickness-thick{stroke-width:3.5px;}#mermaid-diagram-mermaid-c5sn427 .edge-pattern-solid{stroke-dasharray:0;}#mermaid-diagram-mermaid-c5sn427 .edge-thickness-invisible{stroke-width:0;fill:none;}#mermaid-diagram-mermaid-c5sn427 .edge-pattern-dashed{stroke-dasharray:3;}#mermaid-diagram-mermaid-c5sn427 .edge-pattern-dotted{stroke-dasharray:2;}#mermaid-diagram-mermaid-c5sn427 .marker{fill:#666;stroke:#666;}#mermaid-diagram-mermaid-c5sn427 .marker.cross{stroke:#666;}#mermaid-diagram-mermaid-c5sn427 svg{font-family:"trebuchet ms",verdana,arial,sans-serif;font-size:16px;}#mermaid-diagram-mermaid-c5sn427 p{margin:0;}#mermaid-diagram-mermaid-c5sn427 .label{font-family:"trebuchet ms",verdana,arial,sans-serif;color:#000000;}#mermaid-diagram-mermaid-c5sn427 .cluster-label text{fill:#333;}#mermaid-diagram-mermaid-c5sn427 .cluster-label span{color:#333;}#mermaid-diagram-mermaid-c5sn427 .cluster-label span p{background-color:transparent;}#mermaid-diagram-mermaid-c5sn427 .label text,#mermaid-diagram-mermaid-c5sn427 span{fill:#000000;color:#000000;}#mermaid-diagram-mermaid-c5sn427 .node rect,#mermaid-diagram-mermaid-c5sn427 .node circle,#mermaid-diagram-mermaid-c5sn427 .node ellipse,#mermaid-diagram-mermaid-c5sn427 .node polygon,#mermaid-diagram-mermaid-c5sn427 .node path{fill:#eee;stroke:#999;stroke-width:1px;}#mermaid-diagram-mermaid-c5sn427 .rough-node .label text,#mermaid-diagram-mermaid-c5sn427 .node .label text,#mermaid-diagram-mermaid-c5sn427 .image-shape .label,#mermaid-diagram-mermaid-c5sn427 .icon-shape .label{text-anchor:middle;}#mermaid-diagram-mermaid-c5sn427 .node .katex path{fill:#000;stroke:#000;stroke-width:1px;}#mermaid-diagram-mermaid-c5sn427 .rough-node .label,#mermaid-diagram-mermaid-c5sn427 .node .label,#mermaid-diagram-mermaid-c5sn427 .image-shape .label,#mermaid-diagram-mermaid-c5sn427 .icon-shape .label{text-align:center;}#mermaid-diagram-mermaid-c5sn427 .node.clickable{cursor:pointer;}#mermaid-diagram-mermaid-c5sn427 .root .anchor path{fill:#666!important;stroke-width:0;stroke:#666;}#mermaid-diagram-mermaid-c5sn427 .arrowheadPath{fill:#333333;}#mermaid-diagram-mermaid-c5sn427 .edgePath .path{stroke:#666;stroke-width:2.0px;}#mermaid-diagram-mermaid-c5sn427 .flowchart-link{stroke:#666;fill:none;}#mermaid-diagram-mermaid-c5sn427 .edgeLabel{background-color:white;text-align:center;}#mermaid-diagram-mermaid-c5sn427 .edgeLabel p{background-color:white;}#mermaid-diagram-mermaid-c5sn427 .edgeLabel rect{opacity:0.5;background-color:white;fill:white;}#mermaid-diagram-mermaid-c5sn427 .labelBkg{background-color:rgba(255, 255, 255, 0.5);}#mermaid-diagram-mermaid-c5sn427 .cluster rect{fill:hsl(0, 0%, 98.9215686275%);stroke:#707070;stroke-width:1px;}#mermaid-diagram-mermaid-c5sn427 .cluster text{fill:#333;}#mermaid-diagram-mermaid-c5sn427 .cluster span{color:#333;}#mermaid-diagram-mermaid-c5sn427 div.mermaidTooltip{position:absolute;text-align:center;max-width:200px;padding:2px;font-family:"trebuchet ms",verdana,arial,sans-serif;font-size:12px;background:hsl(-160, 0%, 93.3333333333%);border:1px solid #707070;border-radius:2px;pointer-events:none;z-index:100;}#mermaid-diagram-mermaid-c5sn427 .flowchartTitleText{text-anchor:middle;font-size:18px;fill:#000000;}#mermaid-diagram-mermaid-c5sn427 rect.text{fill:none;stroke-width:0;}#mermaid-diagram-mermaid-c5sn427 .icon-shape,#mermaid-diagram-mermaid-c5sn427 .image-shape{background-color:white;text-align:center;}#mermaid-diagram-mermaid-c5sn427 .icon-shape p,#mermaid-diagram-mermaid-c5sn427 .image-shape p{background-color:white;padding:2px;}#mermaid-diagram-mermaid-c5sn427 .icon-shape rect,#mermaid-diagram-mermaid-c5sn427 .image-shape rect{opacity:0.5;background-color:white;fill:white;}#mermaid-diagram-mermaid-c5sn427 :root{--mermaid-font-family:"trebuchet ms",verdana,arial,sans-serif;}</style><g><marker orient="auto" markerHeight="8" markerWidth="8" markerUnits="userSpaceOnUse" refY="5" refX="5" viewBox="0 0 10 10" class="marker flowchart-v2" id="mermaid-diagram-mermaid-c5sn427_flowchart-v2-pointEnd"><path style="stroke-width: 1; stroke-dasharray: 1, 0;" class="arrowMarkerPath" d="M 0 0 L 10 5 L 0 10 z"></path></marker><marker orient="auto" markerHeight="8" markerWidth="8" markerUnits="userSpaceOnUse" refY="5" refX="4.5" viewBox="0 0 10 10" class="marker flowchart-v2" id="mermaid-diagram-mermaid-c5sn427_flowchart-v2-pointStart"><path style="stroke-width: 1; stroke-dasharray: 1, 0;" class="arrowMarkerPath" d="M 0 5 L 10 10 L 10 0 z"></path></marker><marker orient="auto" markerHeight="11" markerWidth="11" markerUnits="userSpaceOnUse" refY="5" refX="11" viewBox="0 0 10 10" class="marker flowchart-v2" id="mermaid-diagram-mermaid-c5sn427_flowchart-v2-circleEnd"><circle style="stroke-width: 1; stroke-dasharray: 1, 0;" class="arrowMarkerPath" r="5" cy="5" cx="5"></circle></marker><marker orient="auto" markerHeight="11" markerWidth="11" markerUnits="userSpaceOnUse" refY="5" refX="-1" viewBox="0 0 10 10" class="marker flowchart-v2" id="mermaid-diagram-mermaid-c5sn427_flowchart-v2-circleStart"><circle style="stroke-width: 1; stroke-dasharray: 1, 0;" class="arrowMarkerPath" r="5" cy="5" cx="5"></circle></marker><marker orient="auto" markerHeight="11" markerWidth="11" markerUnits="userSpaceOnUse" refY="5.2" refX="12" viewBox="0 0 11 11" class="marker cross flowchart-v2" id="mermaid-diagram-mermaid-c5sn427_flowchart-v2-crossEnd"><path style="stroke-width: 2; stroke-dasharray: 1, 0;" class="arrowMarkerPath" d="M 1,1 l 9,9 M 10,1 l -9,9"></path></marker><marker orient="auto" markerHeight="11" markerWidth="11" markerUnits="userSpaceOnUse" refY="5.2" refX="-1" viewBox="0 0 11 11" class="marker cross flowchart-v2" id="mermaid-diagram-mermaid-c5sn427_flowchart-v2-crossStart"><path style="stroke-width: 2; stroke-dasharray: 1, 0;" class="arrowMarkerPath" d="M 1,1 l 9,9 M 10,1 l -9,9"></path></marker><g class="root"><g class="clusters"><g data-look="classic" id="未来扩展" class="cluster"><rect height="103.99999237060547" width="1260" y="419.9999771118164" x="8" style=""></rect><g transform="translate(538.0000076293945, 419.9999771118164)" class="cluster-label"><foreignObject height="23.99999237060547" width="199.99998474121094"><div xmlns="http://www.w3.org/1999/xhtml" style="display: table-cell; white-space: nowrap; line-height: 1.5; max-width: 200px; text-align: center;"><span class="nodeLabel"><p>未来扩展接口（Milestone 3/4/5）</p></span></div></foreignObject></g></g><g data-look="classic" id="治理监控" class="cluster"><rect height="103.99999237060547" width="640" y="1530.9999084472656" x="1195.5" style=""></rect><g transform="translate(1475.75, 1530.9999084472656)" class="cluster-label"><foreignObject height="23.99999237060547" width="79.5"><div xmlns="http://www.w3.org/1999/xhtml" style="display: table-cell; white-space: nowrap; line-height: 1.5; max-width: 200px; text-align: center;"><span class="nodeLabel"><p>治理监控层</p></span></div></foreignObject></g></g><g data-look="classic" id="数据中台" class="cluster"><rect height="519.9999618530273" width="1650" y="960.9999465942383" x="133" style=""></rect><g transform="translate(886.4453125, 960.9999465942383)" class="cluster-label"><foreignObject height="23.99999237060547" width="143.109375"><div xmlns="http://www.w3.org/1999/xhtml" style="display: table-cell; white-space: nowrap; line-height: 1.5; max-width: 200px; text-align: center;"><span class="nodeLabel"><p>数据中台（最优版）</p></span></div></foreignObject></g></g><g data-look="classic" id="工具层" class="cluster"><rect height="103.99999237060547" width="360" y="806.9999542236328" x="1537.3046894073486" style=""></rect><g transform="translate(1659.726598739624, 806.9999542236328)" class="cluster-label"><foreignObject height="23.99999237060547" width="115.15618133544922"><div xmlns="http://www.w3.org/1999/xhtml" style="display: table-cell; white-space: nowrap; line-height: 1.5; max-width: 200px; text-align: center;"><span class="nodeLabel"><p>工具层（Skills）</p></span></div></foreignObject></g></g><g data-look="classic" id="智能层" class="cluster"><rect height="336.9999771118164" width="640" y="419.9999771118164" x="1288" style=""></rect><g transform="translate(1526.8046875, 419.9999771118164)" class="cluster-label"><foreignObject height="23.99999237060547" width="162.390625"><div xmlns="http://www.w3.org/1999/xhtml" style="display: table-cell; white-space: nowrap; line-height: 1.5; max-width: 200px; text-align: center;"><span class="nodeLabel"><p>智能层（Hybrid 大脑）</p></span></div></foreignObject></g></g><g data-look="classic" id="接入层" class="cluster"><rect height="207.99998474121094" width="330" y="161.99999237060547" x="1463" style=""></rect><g transform="translate(1604.1484508514404, 161.99999237060547)" class="cluster-label"><foreignObject height="23.99999237060547" width="47.70309829711914"><div xmlns="http://www.w3.org/1999/xhtml" style="display: table-cell; white-space: nowrap; line-height: 1.5; max-width: 200px; text-align: center;"><span class="nodeLabel"><p>接入层</p></span></div></foreignObject></g></g><g data-look="classic" id="用户层" class="cluster"><rect height="103.99999237060547" width="330" y="8" x="1463" style=""></rect><g transform="translate(1604.1484508514404, 8)" class="cluster-label"><foreignObject height="23.99999237060547" width="47.70309829711914"><div xmlns="http://www.w3.org/1999/xhtml" style="display: table-cell; white-space: nowrap; line-height: 1.5; max-width: 200px; text-align: center;"><span class="nodeLabel"><p>用户层</p></span></div></foreignObject></g></g></g><g class="edgePaths"><path marker-end="url(#mermaid-diagram-mermaid-c5sn427_flowchart-v2-pointEnd)" style="" class="edge-thickness-normal edge-pattern-solid edge-thickness-normal edge-pattern-solid flowchart-link" id="L_User_WeCom_0" d="M1628,87L1628,91.167C1628,95.333,1628,103.667,1628,112C1628,120.333,1628,128.667,1628,137C1628,145.333,1628,153.667,1628,161.333C1628,169,1628,176,1628,179.5L1628,183"></path><path marker-end="url(#mermaid-diagram-mermaid-c5sn427_flowchart-v2-pointEnd)" style="" class="edge-thickness-normal edge-pattern-solid edge-thickness-normal edge-pattern-solid flowchart-link" id="L_WeCom_Plugin_0" d="M1628,241L1628,245.167C1628,249.333,1628,257.667,1628,265.333C1628,273,1628,280,1628,283.5L1628,287"></path><path marker-end="url(#mermaid-diagram-mermaid-c5sn427_flowchart-v2-pointEnd)" style="" class="edge-thickness-normal edge-pattern-solid edge-thickness-normal edge-pattern-solid flowchart-link" id="L_Plugin_Gateway_0" d="M1628,345L1628,349.167C1628,353.333,1628,361.667,1628,370C1628,378.333,1628,386.667,1628,395C1628,403.333,1628,411.667,1628,419.333C1628,427,1628,434,1628,437.5L1628,441"></path><path marker-end="url(#mermaid-diagram-mermaid-c5sn427_flowchart-v2-pointEnd)" style="" class="edge-thickness-normal edge-pattern-solid edge-thickness-normal edge-pattern-solid flowchart-link" id="L_Gateway_Pi_0" d="M1698.096,499L1708.913,503.167C1719.731,507.333,1741.365,515.667,1752.183,524C1763,532.333,1763,540.667,1763,548.333C1763,556,1763,563,1763,566.5L1763,570"></path><path marker-end="url(#mermaid-diagram-mermaid-c5sn427_flowchart-v2-pointEnd)" style="" class="edge-thickness-normal edge-pattern-solid edge-thickness-normal edge-pattern-solid flowchart-link" id="L_Gateway_LangGraph_0" d="M1547.519,499L1535.099,503.167C1522.679,507.333,1497.84,515.667,1485.42,524C1473,532.333,1473,540.667,1471.637,548.378C1470.274,556.089,1467.547,563.178,1466.184,566.722L1464.821,570.267"></path><path marker-end="url(#mermaid-diagram-mermaid-c5sn427_flowchart-v2-pointEnd)" style="" class="edge-thickness-normal edge-pattern-solid edge-thickness-normal edge-pattern-solid flowchart-link" id="L_Pi_Agents_0" d="M1763,628L1763,632.167C1763,636.333,1763,644.667,1751.212,652.788C1739.424,660.909,1715.849,668.818,1704.061,672.773L1692.273,676.728"></path><path marker-end="url(#mermaid-diagram-mermaid-c5sn427_flowchart-v2-pointEnd)" style="" class="edge-thickness-normal edge-pattern-solid edge-thickness-normal edge-pattern-solid flowchart-link" id="L_LangGraph_Agents_0" d="M1453,628L1453,632.167C1453,636.333,1453,644.667,1464.788,652.788C1476.576,660.909,1500.151,668.818,1511.939,672.773L1523.727,676.728"></path><path marker-end="url(#mermaid-diagram-mermaid-c5sn427_flowchart-v2-pointEnd)" style="" class="edge-thickness-normal edge-pattern-solid edge-thickness-normal edge-pattern-solid flowchart-link" id="L_Agents_Skills_0" d="M1672.543,732L1682.503,736.167C1692.463,740.333,1712.384,748.667,1722.344,757C1732.305,765.333,1732.305,773.667,1732.305,782C1732.305,790.333,1732.305,798.667,1732.305,806.333C1732.305,814,1732.305,821,1732.305,824.5L1732.305,828"></path><path marker-end="url(#mermaid-diagram-mermaid-c5sn427_flowchart-v2-pointEnd)" style="" class="edge-thickness-normal edge-pattern-solid edge-thickness-normal edge-pattern-solid flowchart-link" id="L_Skills_Semantic_0" d="M1748.243,886L1750.702,890.167C1753.162,894.333,1758.081,902.667,1760.54,911C1763,919.333,1763,927.667,1763,936C1763,944.333,1763,952.667,1723.244,962.383C1683.487,972.1,1603.974,983.199,1564.218,988.749L1524.462,994.299"></path><path marker-end="url(#mermaid-diagram-mermaid-c5sn427_flowchart-v2-pointEnd)" style="" class="edge-thickness-normal edge-pattern-solid edge-thickness-normal edge-pattern-solid flowchart-link" id="L_Semantic_API_0" d="M1390.5,1040L1390.5,1044.167C1390.5,1048.333,1390.5,1056.667,1390.5,1064.333C1390.5,1072,1390.5,1079,1390.5,1082.5L1390.5,1086"></path><path marker-end="url(#mermaid-diagram-mermaid-c5sn427_flowchart-v2-pointEnd)" style="" class="edge-thickness-normal edge-pattern-solid edge-thickness-normal edge-pattern-solid flowchart-link" id="L_API_Storage_0" d="M1390.5,1144L1390.5,1148.167C1390.5,1152.333,1390.5,1160.667,1390.5,1168.333C1390.5,1176,1390.5,1183,1390.5,1186.5L1390.5,1190"></path><path marker-end="url(#mermaid-diagram-mermaid-c5sn427_flowchart-v2-pointEnd)" style="" class="edge-thickness-normal edge-pattern-solid edge-thickness-normal edge-pattern-solid flowchart-link" id="L_Storage_CDC_0" d="M1390.5,1248L1390.5,1252.167C1390.5,1256.333,1390.5,1264.667,1399.9,1272.744C1409.301,1280.821,1428.102,1288.642,1437.502,1292.553L1446.903,1296.464"></path><path marker-end="url(#mermaid-diagram-mermaid-c5sn427_flowchart-v2-pointEnd)" style="" class="edge-thickness-normal edge-pattern-solid edge-thickness-normal edge-pattern-solid flowchart-link" id="L_CDC_Orchestration_0" d="M1515.5,1352L1515.5,1356.167C1515.5,1360.333,1515.5,1368.667,1515.5,1376.333C1515.5,1384,1515.5,1391,1515.5,1394.5L1515.5,1398"></path><path marker-end="url(#mermaid-diagram-mermaid-c5sn427_flowchart-v2-pointEnd)" style="" class="edge-thickness-normal edge-pattern-solid edge-thickness-normal edge-pattern-solid flowchart-link" id="L_Skills_Orchestration_0" d="M1737.858,886L1738.715,890.167C1739.572,894.333,1741.286,902.667,1742.143,911C1743,919.333,1743,927.667,1743,936C1743,944.333,1743,952.667,1743,965.5C1743,978.333,1743,995.667,1743,1013C1743,1030.333,1743,1047.667,1743,1065C1743,1082.333,1743,1099.667,1743,1117C1743,1134.333,1743,1151.667,1743,1169C1743,1186.333,1743,1203.667,1743,1221C1743,1238.333,1743,1255.667,1743,1273C1743,1290.333,1743,1307.667,1743,1325C1743,1342.333,1743,1359.667,1725.421,1372.351C1707.841,1385.036,1672.683,1393.072,1655.104,1397.091L1637.524,1401.109"></path><path marker-end="url(#mermaid-diagram-mermaid-c5sn427_flowchart-v2-pointEnd)" style="" class="edge-thickness-normal edge-pattern-solid edge-thickness-normal edge-pattern-solid flowchart-link" id="L_Orchestration_Observability_0" d="M1595.981,1456L1608.401,1460.167C1620.821,1464.333,1645.66,1472.667,1658.08,1481C1670.5,1489.333,1670.5,1497.667,1670.5,1506C1670.5,1514.333,1670.5,1522.667,1670.5,1530.333C1670.5,1538,1670.5,1545,1670.5,1548.5L1670.5,1552"></path><path marker-end="url(#mermaid-diagram-mermaid-c5sn427_flowchart-v2-pointEnd)" style="" class="edge-thickness-normal edge-pattern-solid edge-thickness-normal edge-pattern-solid flowchart-link" id="L_Orchestration_Audit_0" d="M1435.019,1456L1422.599,1460.167C1410.179,1464.333,1385.34,1472.667,1372.92,1481C1360.5,1489.333,1360.5,1497.667,1360.5,1506C1360.5,1514.333,1360.5,1522.667,1360.5,1530.333C1360.5,1538,1360.5,1545,1360.5,1548.5L1360.5,1552"></path><path marker-end="url(#mermaid-diagram-mermaid-c5sn427_flowchart-v2-pointEnd)" style="" class="edge-thickness-normal edge-pattern-dotted edge-thickness-normal edge-pattern-solid flowchart-link" id="L_CDC_Skills_0" d="M1571.786,1298L1580.472,1293.833C1589.158,1289.667,1606.53,1281.333,1615.216,1268.5C1623.902,1255.667,1623.902,1238.333,1623.902,1221C1623.902,1203.667,1623.902,1186.333,1623.902,1169C1623.902,1151.667,1623.902,1134.333,1623.902,1117C1623.902,1099.667,1623.902,1082.333,1623.902,1065C1623.902,1047.667,1623.902,1030.333,1623.902,1013C1623.902,995.667,1623.902,978.333,1623.902,965.5C1623.902,952.667,1623.902,944.333,1623.902,936C1623.902,927.667,1623.902,919.333,1631.987,911.288C1640.072,903.243,1656.242,895.487,1664.327,891.608L1672.412,887.73"></path><path marker-end="url(#mermaid-diagram-mermaid-c5sn427_flowchart-v2-pointEnd)" style="" class="edge-thickness-normal edge-pattern-dotted edge-thickness-normal edge-pattern-solid flowchart-link" id="L_Semantic_Agents_0" d="M1390.5,986L1390.5,981.833C1390.5,977.667,1390.5,969.333,1390.5,961C1390.5,952.667,1390.5,944.333,1390.5,936C1390.5,927.667,1390.5,919.333,1390.5,906.5C1390.5,893.667,1390.5,876.333,1390.5,859C1390.5,841.667,1390.5,824.333,1390.5,811.5C1390.5,798.667,1390.5,790.333,1390.5,782C1390.5,773.667,1390.5,765.333,1407.279,757.155C1424.059,748.977,1457.618,740.953,1474.397,736.942L1491.177,732.93"></path><path marker-end="url(#mermaid-diagram-mermaid-c5sn427_flowchart-v2-pointEnd)" style="" class="edge-thickness-normal edge-pattern-dotted edge-thickness-normal edge-pattern-solid flowchart-link" id="L_External_Semantic_0" d="M173,499L173,503.167C173,507.333,173,515.667,173,524C173,532.333,173,540.667,173,553.5C173,566.333,173,583.667,173,601C173,618.333,173,635.667,173,653C173,670.333,173,687.667,173,705C173,722.333,173,739.667,173,752.5C173,765.333,173,773.667,173,782C173,790.333,173,798.667,173,811.5C173,824.333,173,841.667,173,859C173,876.333,173,893.667,173,906.5C173,919.333,173,927.667,173,936C173,944.333,173,952.667,353.584,964.546C534.168,976.426,895.336,991.851,1075.92,999.564L1256.504,1007.277"></path><path marker-end="url(#mermaid-diagram-mermaid-c5sn427_flowchart-v2-pointEnd)" style="" class="edge-thickness-normal edge-pattern-dotted edge-thickness-normal edge-pattern-solid flowchart-link" id="L_ML_LangGraph_0" d="M483,499L483,503.167C483,507.333,483,515.667,630.917,524C778.833,532.333,1074.667,540.667,1228.63,548.644C1382.593,556.622,1394.686,564.245,1400.733,568.056L1406.78,571.867"></path><path marker-end="url(#mermaid-diagram-mermaid-c5sn427_flowchart-v2-pointEnd)" style="" class="edge-thickness-normal edge-pattern-dotted edge-thickness-normal edge-pattern-solid flowchart-link" id="L_Learning_LangGraph_0" d="M793,499L793,503.167C793,507.333,793,515.667,903,524C1013,532.333,1233,540.667,1343,548.333C1453,556,1453,563,1453,566.5L1453,570"></path><path marker-end="url(#mermaid-diagram-mermaid-c5sn427_flowchart-v2-pointEnd)" style="" class="edge-thickness-normal edge-pattern-dotted edge-thickness-normal edge-pattern-solid flowchart-link" id="L_Elastic_Orchestration_0" d="M1103,499L1103,503.167C1103,507.333,1103,515.667,1103,524C1103,532.333,1103,540.667,1103,553.5C1103,566.333,1103,583.667,1103,601C1103,618.333,1103,635.667,1103,653C1103,670.333,1103,687.667,1103,705C1103,722.333,1103,739.667,1103,752.5C1103,765.333,1103,773.667,1103,782C1103,790.333,1103,798.667,1103,811.5C1103,824.333,1103,841.667,1103,859C1103,876.333,1103,893.667,1103,906.5C1103,919.333,1103,927.667,1103,936C1103,944.333,1103,952.667,1103,965.5C1103,978.333,1103,995.667,1103,1013C1103,1030.333,1103,1047.667,1103,1065C1103,1082.333,1103,1099.667,1103,1117C1103,1134.333,1103,1151.667,1103,1169C1103,1186.333,1103,1203.667,1103,1221C1103,1238.333,1103,1255.667,1103,1273C1103,1290.333,1103,1307.667,1103,1325C1103,1342.333,1103,1359.667,1149.422,1374.185C1195.844,1388.704,1288.688,1400.408,1335.11,1406.26L1381.531,1412.112"></path></g><g class="edgeLabels"><g class="edgeLabel"><g transform="translate(0, 0)" class="label"><foreignObject height="0" width="0"><div class="labelBkg" xmlns="http://www.w3.org/1999/xhtml" style="display: table-cell; white-space: nowrap; line-height: 1.5; max-width: 200px; text-align: center;"><span class="edgeLabel"></span></div></foreignObject></g></g><g class="edgeLabel"><g transform="translate(0, 0)" class="label"><foreignObject height="0" width="0"><div class="labelBkg" xmlns="http://www.w3.org/1999/xhtml" style="display: table-cell; white-space: nowrap; line-height: 1.5; max-width: 200px; text-align: center;"><span class="edgeLabel"></span></div></foreignObject></g></g><g class="edgeLabel"><g transform="translate(0, 0)" class="label"><foreignObject height="0" width="0"><div class="labelBkg" xmlns="http://www.w3.org/1999/xhtml" style="display: table-cell; white-space: nowrap; line-height: 1.5; max-width: 200px; text-align: center;"><span class="edgeLabel"></span></div></foreignObject></g></g><g class="edgeLabel"><g transform="translate(0, 0)" class="label"><foreignObject height="0" width="0"><div class="labelBkg" xmlns="http://www.w3.org/1999/xhtml" style="display: table-cell; white-space: nowrap; line-height: 1.5; max-width: 200px; text-align: center;"><span class="edgeLabel"></span></div></foreignObject></g></g><g class="edgeLabel"><g transform="translate(0, 0)" class="label"><foreignObject height="0" width="0"><div class="labelBkg" xmlns="http://www.w3.org/1999/xhtml" style="display: table-cell; white-space: nowrap; line-height: 1.5; max-width: 200px; text-align: center;"><span class="edgeLabel"></span></div></foreignObject></g></g><g class="edgeLabel"><g transform="translate(0, 0)" class="label"><foreignObject height="0" width="0"><div class="labelBkg" xmlns="http://www.w3.org/1999/xhtml" style="display: table-cell; white-space: nowrap; line-height: 1.5; max-width: 200px; text-align: center;"><span class="edgeLabel"></span></div></foreignObject></g></g><g class="edgeLabel"><g transform="translate(0, 0)" class="label"><foreignObject height="0" width="0"><div class="labelBkg" xmlns="http://www.w3.org/1999/xhtml" style="display: table-cell; white-space: nowrap; line-height: 1.5; max-width: 200px; text-align: center;"><span class="edgeLabel"></span></div></foreignObject></g></g><g class="edgeLabel"><g transform="translate(0, 0)" class="label"><foreignObject height="0" width="0"><div class="labelBkg" xmlns="http://www.w3.org/1999/xhtml" style="display: table-cell; white-space: nowrap; line-height: 1.5; max-width: 200px; text-align: center;"><span class="edgeLabel"></span></div></foreignObject></g></g><g class="edgeLabel"><g transform="translate(0, 0)" class="label"><foreignObject height="0" width="0"><div class="labelBkg" xmlns="http://www.w3.org/1999/xhtml" style="display: table-cell; white-space: nowrap; line-height: 1.5; max-width: 200px; text-align: center;"><span class="edgeLabel"></span></div></foreignObject></g></g><g class="edgeLabel"><g transform="translate(0, 0)" class="label"><foreignObject height="0" width="0"><div class="labelBkg" xmlns="http://www.w3.org/1999/xhtml" style="display: table-cell; white-space: nowrap; line-height: 1.5; max-width: 200px; text-align: center;"><span class="edgeLabel"></span></div></foreignObject></g></g><g class="edgeLabel"><g transform="translate(0, 0)" class="label"><foreignObject height="0" width="0"><div class="labelBkg" xmlns="http://www.w3.org/1999/xhtml" style="display: table-cell; white-space: nowrap; line-height: 1.5; max-width: 200px; text-align: center;"><span class="edgeLabel"></span></div></foreignObject></g></g><g class="edgeLabel"><g transform="translate(0, 0)" class="label"><foreignObject height="0" width="0"><div class="labelBkg" xmlns="http://www.w3.org/1999/xhtml" style="display: table-cell; white-space: nowrap; line-height: 1.5; max-width: 200px; text-align: center;"><span class="edgeLabel"></span></div></foreignObject></g></g><g class="edgeLabel"><g transform="translate(0, 0)" class="label"><foreignObject height="0" width="0"><div class="labelBkg" xmlns="http://www.w3.org/1999/xhtml" style="display: table-cell; white-space: nowrap; line-height: 1.5; max-width: 200px; text-align: center;"><span class="edgeLabel"></span></div></foreignObject></g></g><g class="edgeLabel"><g transform="translate(0, 0)" class="label"><foreignObject height="0" width="0"><div class="labelBkg" xmlns="http://www.w3.org/1999/xhtml" style="display: table-cell; white-space: nowrap; line-height: 1.5; max-width: 200px; text-align: center;"><span class="edgeLabel"></span></div></foreignObject></g></g><g class="edgeLabel"><g transform="translate(0, 0)" class="label"><foreignObject height="0" width="0"><div class="labelBkg" xmlns="http://www.w3.org/1999/xhtml" style="display: table-cell; white-space: nowrap; line-height: 1.5; max-width: 200px; text-align: center;"><span class="edgeLabel"></span></div></foreignObject></g></g><g class="edgeLabel"><g transform="translate(0, 0)" class="label"><foreignObject height="0" width="0"><div class="labelBkg" xmlns="http://www.w3.org/1999/xhtml" style="display: table-cell; white-space: nowrap; line-height: 1.5; max-width: 200px; text-align: center;"><span class="edgeLabel"></span></div></foreignObject></g></g><g transform="translate(1623.9023447036743, 1116.9999351501465)" class="edgeLabel"><g transform="translate(-31.804689407348633, -11.999996185302734)" class="label"><foreignObject height="23.99999237060547" width="63.609378814697266"><div class="labelBkg" xmlns="http://www.w3.org/1999/xhtml" style="display: table-cell; white-space: nowrap; line-height: 1.5; max-width: 200px; text-align: center;"><span class="edgeLabel"><p>秒级预警</p></span></div></foreignObject></g></g><g transform="translate(1390.5, 858.9999504089355)" class="edgeLabel"><g transform="translate(-48.624996185302734, -11.999996185302734)" class="label"><foreignObject height="23.99999237060547" width="97.24999237060547"><div class="labelBkg" xmlns="http://www.w3.org/1999/xhtml" style="display: table-cell; white-space: nowrap; line-height: 1.5; max-width: 200px; text-align: center;"><span class="edgeLabel"><p>GraphQL 查询</p></span></div></foreignObject></g></g><g class="edgeLabel"><g transform="translate(0, 0)" class="label"><foreignObject height="0" width="0"><div class="labelBkg" xmlns="http://www.w3.org/1999/xhtml" style="display: table-cell; white-space: nowrap; line-height: 1.5; max-width: 200px; text-align: center;"><span class="edgeLabel"></span></div></foreignObject></g></g><g class="edgeLabel"><g transform="translate(0, 0)" class="label"><foreignObject height="0" width="0"><div class="labelBkg" xmlns="http://www.w3.org/1999/xhtml" style="display: table-cell; white-space: nowrap; line-height: 1.5; max-width: 200px; text-align: center;"><span class="edgeLabel"></span></div></foreignObject></g></g><g class="edgeLabel"><g transform="translate(0, 0)" class="label"><foreignObject height="0" width="0"><div class="labelBkg" xmlns="http://www.w3.org/1999/xhtml" style="display: table-cell; white-space: nowrap; line-height: 1.5; max-width: 200px; text-align: center;"><span class="edgeLabel"></span></div></foreignObject></g></g><g class="edgeLabel"><g transform="translate(0, 0)" class="label"><foreignObject height="0" width="0"><div class="labelBkg" xmlns="http://www.w3.org/1999/xhtml" style="display: table-cell; white-space: nowrap; line-height: 1.5; max-width: 200px; text-align: center;"><span class="edgeLabel"></span></div></foreignObject></g></g></g><g class="nodes"><g transform="translate(1628, 59.999996185302734)" id="flowchart-User-0" class="node default"><rect height="53.99999237060547" width="259.99998474121094" y="-26.999996185302734" x="-129.99999237060547" style="" class="basic label-container"></rect><g transform="translate(-99.99999237060547, -11.999996185302734)" style="" class="label"><rect></rect><foreignObject height="23.99999237060547" width="199.99998474121094"><div xmlns="http://www.w3.org/1999/xhtml" style="display: table-cell; white-space: nowrap; line-height: 1.5; max-width: 200px; text-align: center;"><span class="nodeLabel"><p>门店店长/店员\nWeCom 私聊/群聊\n文字 + 图片 + 语音 + 文件</p></span></div></foreignObject></g></g><g transform="translate(1628, 213.9999885559082)" id="flowchart-WeCom-1" class="node default"><rect height="53.99999237060547" width="259.99998474121094" y="-26.999996185302734" x="-129.99999237060547" style="" class="basic label-container"></rect><g transform="translate(-99.99999237060547, -11.999996185302734)" style="" class="label"><rect></rect><foreignObject height="23.99999237060547" width="199.99998474121094"><div xmlns="http://www.w3.org/1999/xhtml" style="display: table-cell; white-space: nowrap; line-height: 1.5; max-width: 200px; text-align: center;"><span class="nodeLabel"><p>企业微信 WeCom\n官方 Intelligent Assistant</p></span></div></foreignObject></g></g><g transform="translate(1628, 317.9999809265137)" id="flowchart-Plugin-2" class="node default"><rect height="53.99999237060547" width="259.99998474121094" y="-26.999996185302734" x="-129.99999237060547" style="" class="basic label-container"></rect><g transform="translate(-99.99999237060547, -11.999996185302734)" style="" class="label"><rect></rect><foreignObject height="23.99999237060547" width="199.99998474121094"><div xmlns="http://www.w3.org/1999/xhtml" style="display: table-cell; white-space: nowrap; line-height: 1.5; max-width: 200px; text-align: center;"><span class="nodeLabel"><p>OpenClaw WeCom Plugin\n官方 WebSocket 长连接\nAES解密 + Streaming + 主动推送</p></span></div></foreignObject></g></g><g transform="translate(1628, 471.99997329711914)" id="flowchart-Gateway-3" class="node default"><rect height="53.99999237060547" width="259.99998474121094" y="-26.999996185302734" x="-129.99999237060547" style="" class="basic label-container"></rect><g transform="translate(-99.99999237060547, -11.999996185302734)" style="" class="label"><rect></rect><foreignObject height="23.99999237060547" width="199.99998474121094"><div xmlns="http://www.w3.org/1999/xhtml" style="display: table-cell; white-space: nowrap; line-height: 1.5; max-width: 200px; text-align: center;"><span class="nodeLabel"><p>OpenClaw Gateway\n消息路由 + Session管理\n权限校验 + Workspace隔离</p></span></div></foreignObject></g></g><g transform="translate(1763, 600.9999656677246)" id="flowchart-Pi-4" class="node default"><rect height="53.99999237060547" width="259.99998474121094" y="-26.999996185302734" x="-129.99999237060547" style="" class="basic label-container"></rect><g transform="translate(-99.99999237060547, -11.999996185302734)" style="" class="label"><rect></rect><foreignObject height="23.99999237060547" width="199.99998474121094"><div xmlns="http://www.w3.org/1999/xhtml" style="display: table-cell; white-space: nowrap; line-height: 1.5; max-width: 200px; text-align: center;"><span class="nodeLabel"><p>Pi Runtime\n快速 ReAct 执行\n简单查询 + Streaming</p></span></div></foreignObject></g></g><g transform="translate(1453, 600.9999656677246)" id="flowchart-LangGraph-5" class="node default"><rect height="53.99999237060547" width="259.99998474121094" y="-26.999996185302734" x="-129.99999237060547" style="" class="basic label-container"></rect><g transform="translate(-99.99999237060547, -11.999996185302734)" style="" class="label"><rect></rect><foreignObject height="23.99999237060547" width="199.99998474121094"><div xmlns="http://www.w3.org/1999/xhtml" style="display: table-cell; white-space: nowrap; line-height: 1.5; max-width: 200px; text-align: center;"><span class="nodeLabel"><p>LangGraph Orchestrator\nStateGraph + Checkpoint\nSupervisor 多代理编排</p></span></div></foreignObject></g></g><g transform="translate(1608, 704.9999580383301)" id="flowchart-Agents-6" class="node default"><rect height="53.99999237060547" width="259.99998474121094" y="-26.999996185302734" x="-129.99999237060547" style="" class="basic label-container"></rect><g transform="translate(-99.99999237060547, -11.999996185302734)" style="" class="label"><rect></rect><foreignObject height="23.99999237060547" width="199.99998474121094"><div xmlns="http://www.w3.org/1999/xhtml" style="display: table-cell; white-space: nowrap; line-height: 1.5; max-width: 200px; text-align: center;"><span class="nodeLabel"><p>Multi-Agent Team\n• Data Agent（查询/聚合）\n• Vision Agent（Qwen-VL 图片分析）\n• Forecast Agent（预测）\n• Scheduler Agent（排班/执行）</p></span></div></foreignObject></g></g><g transform="translate(1732.3046894073486, 858.9999504089355)" id="flowchart-Skills-7" class="node default"><rect height="53.99999237060547" width="259.99998474121094" y="-26.999996185302734" x="-129.99999237060547" style="" class="basic label-container"></rect><g transform="translate(-99.99999237060547, -11.999996185302734)" style="" class="label"><rect></rect><foreignObject height="23.99999237060547" width="199.99998474121094"><div xmlns="http://www.w3.org/1999/xhtml" style="display: table-cell; white-space: nowrap; line-height: 1.5; max-width: 200px; text-align: center;"><span class="nodeLabel"><p>Custom Skills Layer\n• sales_query\n• inventory_check\n• staff_schedule\n• report_generate\n• rag_knowledge\n• alert_push\n（Human-in-the-Loop + 权限映射）</p></span></div></foreignObject></g></g><g transform="translate(1390.5, 1220.999927520752)" id="flowchart-Storage-8" class="node default"><rect height="53.99999237060547" width="259.99998474121094" y="-26.999996185302734" x="-129.99999237060547" style="" class="basic label-container"></rect><g transform="translate(-99.99999237060547, -11.999996185302734)" style="" class="label"><rect></rect><foreignObject height="23.99999237060547" width="199.99998474121094"><div xmlns="http://www.w3.org/1999/xhtml" style="display: table-cell; white-space: nowrap; line-height: 1.5; max-width: 200px; text-align: center;"><span class="nodeLabel"><p>存储层\nPostgreSQL 主库\n+ pgvector（RAG）\n+ TimescaleDB（时序）\n+ Citus（分布式）</p></span></div></foreignObject></g></g><g transform="translate(1515.5, 1324.9999198913574)" id="flowchart-CDC-9" class="node default"><rect height="53.99999237060547" width="259.99998474121094" y="-26.999996185302734" x="-129.99999237060547" style="" class="basic label-container"></rect><g transform="translate(-99.99999237060547, -11.999996185302734)" style="" class="label"><rect></rect><foreignObject height="23.99999237060547" width="199.99998474121094"><div xmlns="http://www.w3.org/1999/xhtml" style="display: table-cell; white-space: nowrap; line-height: 1.5; max-width: 200px; text-align: center;"><span class="nodeLabel"><p>实时事件层\nDebezium CDC\n+ Kafka / Redpanda\n库存/销售/排班变更秒级推送</p></span></div></foreignObject></g></g><g transform="translate(545.5, 1428.999912261963)" id="flowchart-Modeling-10" class="node default"><rect height="53.99999237060547" width="259.99998474121094" y="-26.999996185302734" x="-129.99999237060547" style="" class="basic label-container"></rect><g transform="translate(-99.99999237060547, -11.999996185302734)" style="" class="label"><rect></rect><foreignObject height="23.99999237060547" width="199.99998474121094"><div xmlns="http://www.w3.org/1999/xhtml" style="display: table-cell; white-space: nowrap; line-height: 1.5; max-width: 200px; text-align: center;"><span class="nodeLabel"><p>建模层\ndbt Core\nGitOps + 测试 + 血缘\nfact_sales / dim_store 等</p></span></div></foreignObject></g></g><g transform="translate(1390.5, 1012.999942779541)" id="flowchart-Semantic-11" class="node default"><rect height="53.99999237060547" width="259.99998474121094" y="-26.999996185302734" x="-129.99999237060547" style="" class="basic label-container"></rect><g transform="translate(-99.99999237060547, -11.999996185302734)" style="" class="label"><rect></rect><foreignObject height="23.99999237060547" width="199.99998474121094"><div xmlns="http://www.w3.org/1999/xhtml" style="display: table-cell; white-space: nowrap; line-height: 1.5; max-width: 200px; text-align: center;"><span class="nodeLabel"><p>语义层\nCube.js（核心！）\n指标统一定义\n预聚合 + 多租户缓存\nREST/GraphQL/Python API</p></span></div></foreignObject></g></g><g transform="translate(1390.5, 1116.9999351501465)" id="flowchart-API-12" class="node default"><rect height="53.99999237060547" width="259.99998474121094" y="-26.999996185302734" x="-129.99999237060547" style="" class="basic label-container"></rect><g transform="translate(-99.99999237060547, -11.999996185302734)" style="" class="label"><rect></rect><foreignObject height="23.99999237060547" width="199.99998474121094"><div xmlns="http://www.w3.org/1999/xhtml" style="display: table-cell; white-space: nowrap; line-height: 1.5; max-width: 200px; text-align: center;"><span class="nodeLabel"><p>API &amp; 权限层\nHasura GraphQL\n+ Row Level Security（RLS）\nWeCom UserID → StoreID 映射</p></span></div></foreignObject></g></g><g transform="translate(1515.5, 1428.999912261963)" id="flowchart-Orchestration-13" class="node default"><rect height="53.99999237060547" width="259.99998474121094" y="-26.999996185302734" x="-129.99999237060547" style="" class="basic label-container"></rect><g transform="translate(-99.99999237060547, -11.999996185302734)" style="" class="label"><rect></rect><foreignObject height="23.99999237060547" width="199.99998474121094"><div xmlns="http://www.w3.org/1999/xhtml" style="display: table-cell; white-space: nowrap; line-height: 1.5; max-width: 200px; text-align: center;"><span class="nodeLabel"><p>编排治理层\nTemporal.io（可靠工作流 + Cron + 重试）\nOpenMetadata（数据目录 + 合规）</p></span></div></foreignObject></g></g><g transform="translate(1670.5, 1582.9999046325684)" id="flowchart-Observability-14" class="node default"><rect height="53.99999237060547" width="259.99998474121094" y="-26.999996185302734" x="-129.99999237060547" style="" class="basic label-container"></rect><g transform="translate(-99.99999237060547, -11.999996185302734)" style="" class="label"><rect></rect><foreignObject height="23.99999237060547" width="199.99998474121094"><div xmlns="http://www.w3.org/1999/xhtml" style="display: table-cell; white-space: nowrap; line-height: 1.5; max-width: 200px; text-align: center;"><span class="nodeLabel"><p>Langfuse + OpenTelemetry\n全链路追踪 + Token/成本监控</p></span></div></foreignObject></g></g><g transform="translate(1360.5, 1582.9999046325684)" id="flowchart-Audit-15" class="node default"><rect height="53.99999237060547" width="259.99998474121094" y="-26.999996185302734" x="-129.99999237060547" style="" class="basic label-container"></rect><g transform="translate(-99.99999237060547, -11.999996185302734)" style="" class="label"><rect></rect><foreignObject height="23.99999237060547" width="199.99998474121094"><div xmlns="http://www.w3.org/1999/xhtml" style="display: table-cell; white-space: nowrap; line-height: 1.5; max-width: 200px; text-align: center;"><span class="nodeLabel"><p>pgAudit + OpenMetadata\n操作审计 + 数据血缘</p></span></div></foreignObject></g></g><g transform="translate(173, 471.99997329711914)" id="flowchart-External-16" class="node default"><rect height="53.99999237060547" width="259.99998474121094" y="-26.999996185302734" x="-129.99999237060547" style="" class="basic label-container"></rect><g transform="translate(-99.99999237060547, -11.999996185302734)" style="" class="label"><rect></rect><foreignObject height="23.99999237060547" width="199.99998474121094"><div xmlns="http://www.w3.org/1999/xhtml" style="display: table-cell; white-space: nowrap; line-height: 1.5; max-width: 200px; text-align: center;"><span class="nodeLabel"><p>外部数据融合\n（天气/节假日/竞品数据）\nKafka Connector</p></span></div></foreignObject></g></g><g transform="translate(483, 471.99997329711914)" id="flowchart-ML-17" class="node default"><rect height="53.99999237060547" width="259.99998474121094" y="-26.999996185302734" x="-129.99999237060547" style="" class="basic label-container"></rect><g transform="translate(-99.99999237060547, -11.999996185302734)" style="" class="label"><rect></rect><foreignObject height="23.99999237060547" width="199.99998474121094"><div xmlns="http://www.w3.org/1999/xhtml" style="display: table-cell; white-space: nowrap; line-height: 1.5; max-width: 200px; text-align: center;"><span class="nodeLabel"><p>基础预测模型\n（Cube.js + ML 插件 / LangGraph 集成）</p></span></div></foreignObject></g></g><g transform="translate(793, 471.99997329711914)" id="flowchart-Learning-18" class="node default"><rect height="53.99999237060547" width="259.99998474121094" y="-26.999996185302734" x="-129.99999237060547" style="" class="basic label-container"></rect><g transform="translate(-99.99999237060547, -11.999996185302734)" style="" class="label"><rect></rect><foreignObject height="23.99999237060547" width="199.99998474121094"><div xmlns="http://www.w3.org/1999/xhtml" style="display: table-cell; white-space: nowrap; line-height: 1.5; max-width: 200px; text-align: center;"><span class="nodeLabel"><p>学习引擎\n（Mem0 + GraphRAG 长期记忆）\n跨店知识沉淀</p></span></div></foreignObject></g></g><g transform="translate(1103, 471.99997329711914)" id="flowchart-Elastic-19" class="node default"><rect height="53.99999237060547" width="259.99998474121094" y="-26.999996185302734" x="-129.99999237060547" style="" class="basic label-container"></rect><g transform="translate(-99.99999237060547, -11.999996185302734)" style="" class="label"><rect></rect><foreignObject height="23.99999237060547" width="199.99998474121094"><div xmlns="http://www.w3.org/1999/xhtml" style="display: table-cell; white-space: nowrap; line-height: 1.5; max-width: 200px; text-align: center;"><span class="nodeLabel"><p>Temporal + K8s\n弹性调度 + 自动扩容</p></span></div></foreignObject></g></g></g></g></g></svg>